<svg width="13" height="13" viewBox="0 0 13 13" fill="none" xmlns="http://www.w3.org/2000/svg">
<path fill-rule="evenodd" clip-rule="evenodd" d="M12.4009 4.43002L8.82771 4.07404C8.71413 4.06053 8.60645 4.01609 8.51638 3.94556C8.42632 3.87502 8.35733 3.78111 8.31696 3.67404L7.03759 0.402039C6.99724 0.283438 6.9208 0.180446 6.81898 0.107513C6.71717 0.034581 6.59509 -0.00463867 6.46987 -0.00463867C6.34465 -0.00463867 6.22257 0.034581 6.12076 0.107513C6.01894 0.180446 5.94249 0.283438 5.90214 0.402039L4.63277 3.67404C4.59378 3.78198 4.52519 3.87674 4.43486 3.94748C4.34453 4.01822 4.23611 4.06208 4.12202 4.07404L0.548784 4.43002C0.426862 4.44969 0.312871 4.50311 0.219714 4.58423C0.126558 4.66534 0.0579501 4.77091 0.0216535 4.88901C-0.0146431 5.00711 -0.0171767 5.13303 0.0143329 5.2525C0.0458424 5.37197 0.110143 5.48023 0.199956 5.56503L2.89863 8.05804C2.98372 8.13825 3.04639 8.23931 3.08041 8.35123C3.11442 8.46314 3.1186 8.58202 3.09253 8.69604L2.28493 12.196C2.25146 12.3154 2.2542 12.4419 2.2928 12.5597C2.3314 12.6774 2.40411 12.781 2.5017 12.8573C2.59929 12.9336 2.71735 12.9792 2.84088 12.9883C2.96442 12.9973 3.08784 12.9693 3.19548 12.908L6.17401 11.062C6.26758 11.0037 6.37561 10.9728 6.48586 10.9728C6.5961 10.9728 6.70414 11.0037 6.79771 11.062L9.77524 12.908C9.88284 12.9702 10.0066 12.9988 10.1305 12.9902C10.2545 12.9815 10.373 12.936 10.471 12.8595C10.5689 12.783 10.6418 12.679 10.6802 12.5608C10.7187 12.4426 10.721 12.3156 10.6868 12.196L9.88718 8.69604C9.86164 8.5815 9.86668 8.46224 9.90176 8.35025C9.93685 8.23827 10.0008 8.1375 10.0871 8.05804L12.7788 5.56503C12.8665 5.4772 12.928 5.36669 12.9565 5.24585C12.985 5.12501 12.9793 4.99862 12.9401 4.88083C12.9009 4.76303 12.8297 4.65847 12.7345 4.57886C12.6393 4.49924 12.5238 4.44771 12.4009 4.43002Z" fill="white"/>
</svg>
